<?xml version="1.0" encoding="UTF-8" standalone="no"?>
<!-- Created with Inkscape (http://www.inkscape.org/) -->

<svg
   version="1.1"
   id="svg1"
   width="689.53333"
   height="373.20001"
   viewBox="0 0 689.53333 373.20001"
   sodipodi:docname="FHCBlack.eps"
   xmlns:inkscape="http://www.inkscape.org/namespaces/inkscape"
   xmlns:sodipodi="http://sodipodi.sourceforge.net/DTD/sodipodi-0.dtd"
   xmlns="http://www.w3.org/2000/svg"
   xmlns:svg="http://www.w3.org/2000/svg">
  <defs
     id="defs1" />
  <sodipodi:namedview
     id="namedview1"
     pagecolor="#ffffff"
     bordercolor="#000000"
     borderopacity="0.25"
     inkscape:showpageshadow="2"
     inkscape:pageopacity="0.0"
     inkscape:pagecheckerboard="0"
     inkscape:deskcolor="#d1d1d1">
    <inkscape:page
       x="0"
       y="0"
       inkscape:label="1"
       id="page1"
       width="689.53333"
       height="373.20001"
       margin="0"
       bleed="0" />
  </sodipodi:namedview>
  <g
     id="g1"
     inkscape:groupmode="layer"
     inkscape:label="1">
    <g
       id="group-R5">
      <path
         id="path2"
         d="M 1864,6.51953 H 0 V 2799.04 H 1864 V 6.51953"
         style="fill:#211d1d;fill-opacity:1;fill-rule:nonzero;stroke:none"
         transform="matrix(0.13333333,0,0,-0.13333333,0,373.2)" />
      <path
         id="path3"
         d="M 448.434,1005.56 H 745.871 V 605.449 h 357.589 v 400.111 h 297.43 V 0 H 1103.46 V 374.32 H 746.531 V 0 H 449.094 l -0.66,1005.56"
         style="fill:#ffffff;fill-opacity:1;fill-rule:nonzero;stroke:none"
         transform="matrix(0.13333333,0,0,-0.13333333,0,373.2)" />
      <path
         id="path4"
         d="m 2201.23,1082.84 v -55.24 h 110.85 v -54.889 h -110.85 v -86.102 h -71.03 v 251.121 h 196.95 v -54.89 h -125.92"
         style="fill:#201c1c;fill-opacity:1;fill-rule:nonzero;stroke:none"
         transform="matrix(0.13333333,0,0,-0.13333333,0,373.2)" />
      <path
         id="path5"
         d="m 2430.06,998.539 v 139.191 h 71.03 V 1000.7 c 0,-43.059 17.94,-60.278 47.71,-60.278 29.42,0 47.36,17.219 47.36,60.278 v 137.03 h 69.95 V 998.539 c 0,-74.969 -43.77,-116.949 -118.02,-116.949 -74.26,0 -118.03,41.98 -118.03,116.949"
         style="fill:#201c1c;fill-opacity:1;fill-rule:nonzero;stroke:none"
         transform="matrix(0.13333333,0,0,-0.13333333,0,373.2)" />
      <path
         id="path6"
         d="m 2896.38,1081.76 h -39.47 v -73.54 h 39.47 c 29.41,0 44.12,13.64 44.12,36.6 0,23.32 -14.71,36.94 -44.12,36.94 z m -0.73,-128.42 h -38.74 v -66.731 h -71.03 v 251.121 h 114.79 c 68.53,0 111.58,-35.52 111.58,-92.91 0,-36.96 -17.94,-64.218 -49.16,-79.281 l 54.17,-78.93 h -76.05 l -45.56,66.731"
         style="fill:#201c1c;fill-opacity:1;fill-rule:nonzero;stroke:none"
         transform="matrix(0.13333333,0,0,-0.13333333,0,373.2)" />
      <path
         id="path7"
         d="m 3349.76,886.609 -0.72,133.091 -64.57,-108.329 h -31.57 l -64.21,104.749 V 886.609 h -65.65 v 251.121 h 58.47 l 88.25,-144.941 86.1,144.941 h 58.48 l 0.71,-251.121 h -65.29"
         style="fill:#201c1c;fill-opacity:1;fill-rule:nonzero;stroke:none"
         transform="matrix(0.13333333,0,0,-0.13333333,0,373.2)" />
      <path
         id="path8"
         d="m 3684.39,987.781 -32.28,80.359 -32.29,-80.359 z m 20.81,-52.383 h -106.19 l -19.72,-48.789 h -72.46 l 110.85,251.121 h 69.95 l 111.2,-251.121 h -73.9 l -19.73,48.789"
         style="fill:#201c1c;fill-opacity:1;fill-rule:nonzero;stroke:none"
         transform="matrix(0.13333333,0,0,-0.13333333,0,373.2)" />
      <path
         id="path9"
         d="M 4129.53,1137.73 V 886.609 h -58.47 L 3960.21,1020.42 V 886.609 h -69.6 v 251.121 h 58.48 l 110.85,-133.81 v 133.81 h 69.59"
         style="fill:#201c1c;fill-opacity:1;fill-rule:nonzero;stroke:none"
         transform="matrix(0.13333333,0,0,-0.13333333,0,373.2)" />
      <path
         id="path10"
         d="M 2369.12,707.309 V 456.191 h -71.03 v 97.93 h -96.86 v -97.93 h -71.03 v 251.118 h 71.03 v -94.348 h 96.86 v 94.348 h 71.03"
         style="fill:#201c1c;fill-opacity:1;fill-rule:nonzero;stroke:none"
         transform="matrix(0.13333333,0,0,-0.13333333,0,373.2)" />
      <path
         id="path11"
         d="m 2488.89,568.121 v 139.188 h 71.03 V 570.281 c 0,-43.062 17.93,-60.281 47.71,-60.281 29.41,0 47.35,17.219 47.35,60.281 v 137.028 h 69.95 V 568.121 c 0,-74.973 -43.76,-116.949 -118.02,-116.949 -74.26,0 -118.02,41.976 -118.02,116.949"
         style="fill:#201c1c;fill-opacity:1;fill-rule:nonzero;stroke:none"
         transform="matrix(0.13333333,0,0,-0.13333333,0,373.2)" />
      <path
         id="path12"
         d="m 3071.43,456.191 -0.73,133.09 -64.57,-108.332 h -31.57 l -64.21,104.75 V 456.191 h -65.65 v 251.118 h 58.47 l 88.26,-144.938 86.09,144.938 H 3136 l 0.71,-251.118 h -65.28"
         style="fill:#201c1c;fill-opacity:1;fill-rule:nonzero;stroke:none"
         transform="matrix(0.13333333,0,0,-0.13333333,0,373.2)" />
      <path
         id="path13"
         d="m 3406.06,557.359 -32.28,80.36 -32.29,-80.36 z m 20.81,-52.379 h -106.19 l -19.72,-48.789 h -72.46 l 110.84,251.118 h 69.96 l 111.21,-251.118 h -73.91 l -19.73,48.789"
         style="fill:#201c1c;fill-opacity:1;fill-rule:nonzero;stroke:none"
         transform="matrix(0.13333333,0,0,-0.13333333,0,373.2)" />
      <path
         id="path14"
         d="M 3851.21,707.309 V 456.191 h -58.48 L 3681.88,590 V 456.191 h -69.6 v 251.118 h 58.48 L 3781.61,573.5 v 133.809 h 69.6"
         style="fill:#201c1c;fill-opacity:1;fill-rule:nonzero;stroke:none"
         transform="matrix(0.13333333,0,0,-0.13333333,0,373.2)" />
      <path
         id="path15"
         d="m 3973.11,707.309 h 71.04 V 456.191 h -71.04 v 251.118"
         style="fill:#201c1c;fill-opacity:1;fill-rule:nonzero;stroke:none"
         transform="matrix(0.13333333,0,0,-0.13333333,0,373.2)" />
      <path
         id="path16"
         d="m 4219.9,650.992 h -77.13 v 56.317 h 224.92 v -56.317 h -76.76 V 456.191 h -71.03 v 194.801"
         style="fill:#201c1c;fill-opacity:1;fill-rule:nonzero;stroke:none"
         transform="matrix(0.13333333,0,0,-0.13333333,0,373.2)" />
      <path
         id="path17"
         d="m 4465.95,707.309 h 71.03 V 456.191 h -71.03 v 251.118"
         style="fill:#201c1c;fill-opacity:1;fill-rule:nonzero;stroke:none"
         transform="matrix(0.13333333,0,0,-0.13333333,0,373.2)" />
      <path
         id="path18"
         d="m 4860.89,511.082 v -54.891 h -201.61 v 251.118 h 196.95 V 652.422 H 4729.59 V 610.09 h 111.57 v -53.102 h -111.57 v -45.906 h 131.3"
         style="fill:#201c1c;fill-opacity:1;fill-rule:nonzero;stroke:none"
         transform="matrix(0.13333333,0,0,-0.13333333,0,373.2)" />
      <path
         id="path19"
         d="m 4954.46,478.789 23.32,52.371 c 22.25,-14.699 53.81,-24.738 82.87,-24.738 29.42,0 40.9,8.25 40.9,20.449 0,39.809 -142.78,10.758 -142.78,104.027 0,44.832 36.59,81.434 111.21,81.434 32.65,0 66.37,-7.531 91.11,-21.883 l -21.87,-52.73 c -24.04,12.91 -47.72,19.363 -69.6,19.363 -29.78,0 -40.54,-10.043 -40.54,-22.602 0,-38.378 142.42,-9.679 142.42,-102.23 0,-43.77 -36.59,-81.078 -111.21,-81.078 -41.25,0 -82.15,11.117 -105.83,27.617"
         style="fill:#201c1c;fill-opacity:1;fill-rule:nonzero;stroke:none"
         transform="matrix(0.13333333,0,0,-0.13333333,0,373.2)" />
      <path
         id="path20"
         d="m 2117.29,151.332 c 0,76.406 58.47,130.578 138.11,130.578 46.28,0 83.59,-16.859 107.98,-47.359 l -45.2,-40.891 c -15.78,19.02 -35.15,29.422 -59.19,29.422 -41.26,0 -69.95,-28.703 -69.95,-71.75 0,-43.051 28.69,-71.7539 69.95,-71.7539 24.04,0 43.41,10.4024 59.19,29.4219 l 45.2,-40.8906 c -24.39,-30.5 -61.7,-47.3594 -107.98,-47.3594 -79.64,0 -138.11,54.1719 -138.11,130.582"
         style="fill:#201c1c;fill-opacity:1;fill-rule:nonzero;stroke:none"
         transform="matrix(0.13333333,0,0,-0.13333333,0,373.2)" />
      <path
         id="path21"
         d="M 2668.26,80.6602 V 25.7695 H 2466.65 V 276.891 h 196.94 V 222 h -126.63 v -42.328 h 111.56 V 126.57 H 2536.96 V 80.6602 h 131.3"
         style="fill:#201c1c;fill-opacity:1;fill-rule:nonzero;stroke:none"
         transform="matrix(0.13333333,0,0,-0.13333333,0,373.2)" />
      <path
         id="path22"
         d="M 3018.34,276.891 V 25.7695 h -58.48 L 2849.01,159.578 V 25.7695 h -69.6 V 276.891 h 58.48 l 110.85,-133.809 v 133.809 h 69.6"
         style="fill:#201c1c;fill-opacity:1;fill-rule:nonzero;stroke:none"
         transform="matrix(0.13333333,0,0,-0.13333333,0,373.2)" />
      <path
         id="path23"
         d="m 3193.71,220.57 h -77.13 v 56.321 H 3341.5 V 220.57 h -76.76 V 25.7695 h -71.03 V 220.57"
         style="fill:#201c1c;fill-opacity:1;fill-rule:nonzero;stroke:none"
         transform="matrix(0.13333333,0,0,-0.13333333,0,373.2)" />
      <path
         id="path24"
         d="M 3641.37,80.6602 V 25.7695 H 3439.76 V 276.891 h 196.95 V 222 h -126.64 v -42.328 h 111.57 V 126.57 H 3510.07 V 80.6602 h 131.3"
         style="fill:#201c1c;fill-opacity:1;fill-rule:nonzero;stroke:none"
         transform="matrix(0.13333333,0,0,-0.13333333,0,373.2)" />
      <path
         id="path25"
         d="m 3863.03,220.922 h -39.47 v -73.543 h 39.47 c 29.41,0 44.12,13.641 44.12,36.601 0,23.321 -14.71,36.942 -44.12,36.942 z M 3862.3,92.5 h -38.74 V 25.7695 h -71.03 V 276.891 h 114.79 c 68.53,0 111.58,-35.52 111.58,-92.911 0,-36.96 -17.94,-64.218 -49.15,-79.281 l 54.17,-78.9295 h -76.06 L 3862.3,92.5"
         style="fill:#201c1c;fill-opacity:1;fill-rule:nonzero;stroke:none"
         transform="matrix(0.13333333,0,0,-0.13333333,0,373.2)" />
    </g>
  </g>
</svg>
